<?xml version="1.0" standalone="no"?>
<!DOCTYPE svg PUBLIC "-//W3C//DTD SVG 20010904//EN"
 "http://www.w3.org/TR/2001/REC-SVG-20010904/DTD/svg10.dtd">
<svg version="1.0" xmlns="http://www.w3.org/2000/svg"
 width="877.000000pt" height="284.000000pt" viewBox="0 0 877.000000 284.000000"
 preserveAspectRatio="xMidYMid meet">

<g transform="translate(0.000000,284.000000) scale(0.100000,-0.100000)"
fill="#000000" stroke="none">
<path d="M1405 2610 c-167 -26 -380 -114 -500 -205 -114 -86 -208 -189 -290
-317 l-17 -28 951 0 c678 0 951 3 951 11 0 26 -110 166 -191 244 -199 189
-445 292 -719 300 -69 2 -152 0 -185 -5z"/>
<path d="M3280 2130 c-85 -11 -155 -67 -197 -159 -22 -47 -25 -63 -20 -135 7
-121 53 -195 152 -242 121 -57 274 -3 337 120 30 58 36 167 13 236 -18 53 -65
114 -116 151 -34 24 -107 37 -169 29z m139 -93 c26 -17 48 -45 66 -82 24 -48
27 -64 23 -120 -15 -183 -193 -268 -310 -148 -47 48 -68 99 -68 163 0 93 52
176 132 210 39 16 114 5 157 -23z"/>
<path d="M5150 2128 c-41 -15 -80 -69 -80 -110 0 -26 22 -78 52 -119 9 -14 5
-22 -26 -49 -48 -42 -66 -79 -66 -132 0 -72 50 -128 133 -149 57 -14 123 -1
179 37 l38 24 27 -30 c22 -25 34 -30 70 -30 23 0 43 4 43 8 0 4 -22 30 -49 56
l-50 49 18 46 c10 25 22 65 26 89 7 41 6 42 -22 42 -27 0 -30 -3 -41 -60 -7
-32 -16 -62 -21 -64 -4 -3 -38 28 -74 68 l-67 74 36 27 c44 34 74 81 74 118 0
34 -24 79 -52 96 -29 18 -108 23 -148 9z m131 -85 c12 -31 -5 -64 -50 -98
l-35 -25 -22 21 c-12 12 -28 34 -35 51 -10 25 -9 33 8 56 11 15 31 29 44 33
35 8 79 -10 90 -38z m-25 -284 c38 -39 69 -78 69 -87 0 -23 -61 -52 -108 -52
-108 0 -155 96 -86 175 17 19 37 35 44 35 7 0 44 -32 81 -71z"/>
<path d="M6545 2130 c-56 -9 -94 -31 -143 -84 -56 -61 -72 -103 -72 -195 0
-96 28 -160 95 -219 185 -163 464 13 424 267 -9 60 -29 100 -76 152 -61 67
-136 93 -228 79z m146 -95 c61 -43 84 -94 83 -185 0 -88 -15 -122 -75 -174
-163 -139 -371 74 -275 280 23 49 58 83 107 104 41 17 115 6 160 -25z"/>
<path d="M8263 2130 c-118 -12 -190 -134 -134 -226 22 -36 89 -70 164 -85 29
-5 72 -19 97 -32 43 -21 45 -24 48 -69 3 -41 0 -49 -23 -64 -56 -37 -180 -26
-251 22 -19 13 -37 24 -39 24 -3 0 -11 -13 -20 -30 -15 -28 -14 -30 9 -45 88
-58 241 -74 324 -34 57 28 82 69 82 134 0 85 -40 119 -187 159 -120 32 -143
47 -143 96 0 31 6 44 32 65 30 25 38 27 100 23 44 -4 79 -13 104 -27 36 -22
39 -22 51 -5 19 27 12 45 -24 67 -40 23 -119 34 -190 27z"/>
<path d="M3828 2023 c-25 -60 -55 -133 -68 -163 -12 -30 -42 -104 -66 -163
-24 -60 -44 -113 -44 -118 0 -5 15 -9 34 -9 34 0 35 2 67 80 l33 81 120 -3
119 -3 31 -75 c31 -73 33 -75 69 -78 20 -2 37 -1 37 2 0 5 -63 161 -123 306
-19 47 -50 122 -68 168 -32 79 -34 82 -65 82 -30 0 -33 -3 -76 -107z m126
-104 c25 -64 46 -119 46 -122 0 -4 -45 -7 -101 -7 -77 0 -100 3 -96 13 13 30
80 194 88 216 5 13 11 22 13 20 2 -2 24 -56 50 -120z"/>
<path d="M4280 1850 l0 -280 35 0 35 0 0 87 0 87 47 48 c52 53 43 56 111 -34
145 -192 141 -188 178 -188 19 0 34 2 34 5 0 3 -52 73 -115 156 l-115 152 63
69 c34 38 84 93 111 123 l48 55 -40 0 c-38 0 -44 -5 -178 -151 l-139 -150 -3
150 -3 151 -34 0 -35 0 0 -280z"/>
<path d="M5880 1850 l0 -280 190 0 190 0 0 30 0 29 -152 3 -153 3 -3 248 -2
247 -35 0 -35 0 0 -280z"/>
<path d="M6920 2100 l0 -30 95 0 95 0 0 -251 0 -250 38 3 37 3 3 248 2 247 95
0 95 0 0 30 0 30 -230 0 -230 0 0 -30z"/>
<path d="M7492 1938 c5 -208 10 -233 65 -298 39 -47 95 -70 173 -70 78 0 134
23 173 70 55 65 60 90 65 298 l4 192 -35 0 -34 0 -5 -183 c-4 -171 -6 -186
-29 -227 -36 -65 -69 -85 -139 -85 -70 0 -103 20 -140 86 -24 42 -25 54 -28
227 l-4 182 -35 0 -35 0 4 -192z"/>
<path d="M573 2008 c-4 -7 -20 -44 -36 -83 l-28 -70 688 -683 c619 -615 690
-682 713 -677 110 27 296 143 408 253 284 280 398 687 295 1055 l-16 57 -936
0 -936 0 590 -584 590 -585 3 77 3 76 -458 458 -458 458 483 0 482 0 0 -592
c0 -325 -2 -589 -5 -587 -46 40 -1325 1315 -1325 1321 0 4 438 8 974 8 l974 0
-21 55 -20 55 -978 0 c-771 0 -980 -3 -986 -12z"/>
<path d="M481 1743 c-21 -102 -25 -278 -7 -384 38 -235 146 -443 312 -606 67
-66 175 -153 189 -153 3 0 23 -11 44 -24 98 -62 283 -120 428 -135 104 -11
263 -1 347 20 l46 11 -666 662 c-366 363 -669 662 -673 664 -5 1 -14 -23 -20
-55z"/>
<path d="M1500 1315 c223 -223 406 -405 407 -405 2 0 3 182 3 405 l0 405 -407
0 -408 0 405 -405z"/>
<path d="M3185 1296 c-72 -31 -123 -128 -110 -211 13 -92 100 -175 181 -175
59 1 167 72 149 99 -10 17 -33 13 -45 -9 -27 -50 -116 -65 -170 -27 -58 39
-75 71 -75 141 0 71 17 105 68 137 47 30 132 22 163 -14 25 -29 39 -33 49 -16
9 13 -30 56 -67 75 -34 17 -103 17 -143 0z"/>
<path d="M3615 1296 c-37 -16 -82 -68 -103 -116 -33 -80 9 -198 88 -244 50
-29 127 -27 173 4 104 71 124 208 44 305 -50 61 -132 82 -202 51z m129 -37
c14 -7 38 -30 53 -52 52 -75 31 -182 -47 -234 -65 -44 -147 -19 -188 58 -40
75 -19 172 47 216 37 25 94 30 135 12z"/>
<path d="M3997 1303 c-9 -9 -8 -353 2 -376 18 -46 26 -7 31 145 l5 161 45 -59
c25 -32 48 -61 51 -64 3 -3 40 -49 83 -102 42 -54 83 -98 91 -98 13 0 15 32
15 200 0 193 -1 200 -20 200 -19 0 -20 -7 -20 -156 0 -175 1 -174 -64 -88 -93
123 -192 243 -202 244 -6 0 -14 -3 -17 -7z"/>
<path d="M4509 1287 c-42 -28 -62 -68 -54 -106 9 -43 32 -58 125 -85 116 -33
146 -71 95 -121 -33 -34 -104 -34 -170 0 -36 18 -51 21 -57 12 -11 -19 21 -46
75 -62 64 -19 97 -19 146 1 72 29 93 97 46 152 -19 23 -41 34 -88 45 -100 23
-121 36 -125 79 -2 28 2 40 20 52 29 20 110 21 149 1 29 -15 49 -13 49 5 0 5
-18 19 -40 30 -55 28 -127 27 -171 -3z"/>
<path d="M4860 1176 c0 -149 10 -187 59 -229 62 -52 166 -44 219 18 39 44 54
114 50 241 -3 91 -5 99 -23 99 -19 0 -20 -8 -25 -140 -4 -111 -9 -145 -23
-166 -48 -71 -163 -63 -204 14 -13 24 -18 65 -21 165 -3 104 -7 132 -18 132
-11 0 -14 -27 -14 -134z"/>
<path d="M5330 1110 l0 -200 123 0 c121 0 156 7 143 29 -5 7 -47 11 -117 11
l-109 0 0 180 c0 173 -1 180 -20 180 -19 0 -20 -7 -20 -200z"/>
<path d="M5600 1290 c0 -18 7 -20 70 -20 l70 0 0 -181 c0 -166 1 -180 18 -177
15 3 17 21 20 181 l2 177 70 0 c63 0 70 2 70 20 0 19 -7 20 -160 20 -153 0
-160 -1 -160 -20z"/>
<path d="M6032 1113 c3 -179 5 -198 21 -201 16 -3 17 11 17 197 0 195 -1 201
-20 201 -20 0 -20 -5 -18 -197z"/>
<path d="M6222 1113 c3 -179 5 -198 21 -201 16 -3 17 9 17 152 0 86 4 156 8
156 4 0 26 -24 47 -52 22 -29 42 -55 45 -58 4 -3 41 -49 83 -102 53 -67 82
-96 92 -92 13 5 15 37 15 200 0 187 -1 194 -20 194 -19 0 -20 -7 -20 -157 0
-185 14 -187 -145 16 -66 84 -117 140 -128 141 -16 0 -17 -14 -15 -197z"/>
<path d="M6785 1294 c-116 -60 -145 -212 -60 -312 62 -72 146 -88 221 -41 40
25 44 24 44 -7 0 -16 5 -24 13 -22 8 3 13 35 15 101 l3 97 -61 0 c-46 0 -60
-3 -60 -14 0 -10 13 -16 42 -18 36 -3 42 -6 45 -29 3 -20 -5 -34 -32 -58 -41
-36 -72 -46 -119 -37 -103 19 -152 157 -89 253 31 49 58 63 118 63 35 0 52 -6
80 -31 26 -23 39 -29 47 -21 16 16 -16 61 -57 78 -45 18 -113 18 -150 -2z"/>
</g>
</svg>
